<svg width="21" height="19" viewBox="0 0 21 19" fill="none" xmlns="http://www.w3.org/2000/svg">
<path d="M19.0166 2.02913L19.0184 2.03091C20.9929 4.05604 20.9954 7.38888 19.0166 9.43859L10.4812 18.2801L1.97084 9.46452C1.97026 9.46391 1.96968 9.46329 1.9691 9.46268C1.02953 8.46821 0.5 7.14887 0.5 5.74496C0.5 4.33577 1.01158 3.0191 1.96728 2.02913L1.96728 2.02913L1.969 2.02734C3.91416 -0.00773775 7.10031 -0.0104953 9.06954 2.04956L9.07125 2.05133L10.1215 3.13927L10.4849 3.51568L10.8445 3.13562L11.893 2.02736C13.8613 -0.00970964 17.049 -0.00911843 19.0166 2.02913Z" fill="black" stroke="black"/>
</svg>
